{"title":"Big Bad 2016 Movies HDRip XviD AAC New Source with Sample ☻rDX☻","uid":15715839,"size":739317937,"categoryP":"video","categoryS":"movies","magnet":"?xt=urn:btih:2c9ec582a9a8b19c16cfec114f9195d63c5457c7&amp;dn=Big+Bad+2016+Movies+HDRip+XviD+AAC+New+Source+with+Sample+%E2%98%BBrDX%E2%98%BB&amp;tr=udp%3A%2F%2Ftracker.leechers-paradise.org%3A6969&amp;tr=udp%3A%2F%2Fzer0day.ch%3A1337&amp;tr=udp%3A%2F%2Fopen.demonii.com%3A1337&amp;tr=udp%3A%2F%2Ftracker.coppersurfer.tk%3A6969&amp;tr=udp%3A%2F%2Fexodus.desync.com%3A6969","seeders":1,"leechers":2,"uploader":"basicssom","files":2,"time":1472618789,"description":"----------------------------------------------------------------\r\nBig Bad 2016 English Movies HDRip XviD AAC New Source with Sample ☻rDX☻\r\n\r\nSCREEN SHOTS &amp; POSTER:\r\n  \nhttp://postimage.co.nr/2016/9/insurance/index.htm  \nhttp://postimage.co.nr/2016/9/insurance/1.html  \nhttp://postimage.co.nr/2016/9/insurance/2.html  \nhttp://postimage.co.nr/2016/9/insurance/3.html  \nhttp://postimage.co.nr/2016/9/insurance/4.html  \nhttp://postimage.co.nr/2016/9/insurance/5.html  \nhttp://postimage.co.nr/2016/9/insurance/6.html  \nhttp://postimage.co.nr/2016/9/insurance/7.html  \nhttp://postimage.co.nr/2016/9/insurance/8.html  \nhttp://postimage.co.nr/2016/9/insurance/9.html  \nhttp://postimage.co.nr/2016/9/insurance/10.html\r\n\r\nFormat                                   : Matroska\r\nFormat version                           : Version 4 / Version 2\r\nFile size                                : 698 MiB\r\nDuration                                 : 1 h 27 min\r\nOverall bit rate mode                    : Constant\r\nOverall bit rate                         : 1 117 kb/s\r\nMovie name                               : Big Bad 2016 English Movies HDRip XviD AAC New Source ☻rDX☻\r\n\r\nVideo\r\nID                                       : 2\r\nFormat                                   : AVC\r\nFormat/Info                              : Advanced Video Codec\r\nFormat profile                           :   \r\nFormat settings, CABAC                   : Yes\r\nFormat settings, ReFrames                : 2 frames\r\nFormat settings, GOP                     : M=1, N=12\r\nCodec ID                                 : V_MPEG4/ISO/AVC\r\nDuration                                 : 1 h 27 min\r\nBit rate mode                            : Constant\r\nBit rate                                 : 926 kb/s\r\nWidth                                    : 720 pixels\r\nHeight                                   : 304 pixels\r\nDisplay aspect ratio                     : 2.35:1\r\nFrame rate mode                          : Constant\r\nFrame rate                               : 23.976 FPS\r\nColor space                              : YUV\r\nChroma subsampling                       : 4:2:0\r\nBit depth                                : 8 bits\r\nScan type                                : Progressive\r\nBits/(Pixel*Frame)                       : 0.176\r\nStream size                              : 564 MiB (81%)\r\nTitle                                    : ☻rDX☻\r\nDefault                                  : Yes\r\nForced                                   : No\r\n\r\nAudio\r\nID                                       : 1\r\nFormat                                   : AC-3\r\nFormat/Info                              : Audio Coding 3\r\nMode extension                           : CM (complete main)\r\nFormat settings, Endianness              : Big\r\nCodec ID                                 : A_AC3\r\nDuration                                 : 1 h 27 min\r\nBit rate mode                            : Constant\r\nBit rate                                 : 192 kb/s\r\nChannel(s)                               : 2 channels\r\nChannel positions                        : Front: L R\r\nSampling rate                            : 48.0 kHz\r\nFrame rate                               : 31.250 FPS (1536 spf)\r\nCompression mode                         : Lossy\r\nStream size                              : 120 MiB (17%)\r\nTitle                                    : ☻rDX☻ac3\r\nDefault                                  : Yes\r\nForced                                   : No\r\n\r\nIMDB \nhttp://www.imdb.com/title/tt3949216/","torrent":{"xt":"urn:btih:2c9ec582a9a8b19c16cfec114f9195d63c5457c7","amp;dn":"Big+Bad+2016+Movies+HDRip+XviD+AAC+New+Source+with+Sample+%E2%98%BBrDX%E2%98%BB","amp;tr":["udp%3A%2F%2Ftracker.leechers-paradise.org%3A6969","udp%3A%2F%2Fzer0day.ch%3A1337","udp%3A%2F%2Fopen.demonii.com%3A1337","udp%3A%2F%2Ftracker.coppersurfer.tk%3A6969","udp%3A%2F%2Fexodus.desync.com%3A6969"],"infoHash":"2c9ec582a9a8b19c16cfec114f9195d63c5457c7","infoHashBuffer":{"type":"Buffer","data":[44,158,197,130,169,168,177,156,22,207,236,17,79,145,149,214,60,84,87,199]},"announce":[],"urlList":[]}}